<?xml version="1.0" encoding="utf-8"?>
<!-- Generator: Adobe Illustrator 28.0.0, SVG Export Plug-In . SVG Version: 6.00 Build 0)  -->
<svg version="1.1" id="Capa_1" xmlns="http://www.w3.org/2000/svg" x="0px"
	 y="0px"
	 viewBox="0 0 1000 1000" style="enable-background:new 0 0 1000 1000;" xml:space="preserve">
<style type="text/css">
	.st0{fill:#FFFFFF;}
	.st1{fill:#43D72B;}
	.st2{fill:#54585A;}
</style>
    <g>
	<path class="st2" d="M133.5,497.2c-2.5,5.7-3.7,19.1-3.7,40.3v9.3c0.3,26.6,1.2,53.5,2.7,80.6c1.5,27.1,2.6,44.6,3.3,52.4
		c0.3,3.4,0.6,6.2,1,8.5c0.5,2.2,0.7,4.1,0.7,5.7c0,0.6-0.1,1.1-0.1,1.6c-0.3,2.1-1.6,4.4-3.9,7c-1,0.8-3.6,1.5-7.9,2
		c-4.2,0.6-9,0.8-14.4,0.8c-5.3-0.1-10.1-0.6-14.3-1.7c-4.2-1.1-6.6-2.9-7.3-5.5c-1.1-4.6-1.8-10.1-2.2-16.5
		c-1.7-31.5-2.5-62.2-2.5-91.9c0-5.9,0.1-11.8,0.2-17.7l0.2-17.2c0-17.4-0.3-35.2-0.7-53.6c0-2.9-1.1-4.5-3.3-4.8
		c-2.2-0.3-4.2-0.4-6-0.4c-2.6,0-5.7,0.2-9.4,0.6c-2.7,0.3-5.7,0.6-9,0.7c-1.1,0.1-2.1,0.2-3,0.2c-1.9,0-3.4-0.2-4.5-0.5
		c-1.6-0.5-2.7-1.9-3.4-4.3c-0.7-2.4-1.3-6.4-1.8-12c-0.1-0.7-0.2-1.3-0.2-1.9c0-3.1,0.9-5.3,2.7-6.7c2.1-1.7,6.1-2.8,12.1-3.3
		c13.6-1.3,26.2-2,37.9-2.2c11.7-0.2,19.1-0.3,22.2-0.3c15.5,0,28,0.6,37.6,1.9c6.1,1.2,9.5,3.2,10.1,6c0.7,2.8,1,5.1,1,7
		c0,2.2-0.2,4.4-0.7,6.7l-0.3,2.4c-0.3,2.4-1.3,3.9-3,4.6c-1.7,0.7-4,1-6.9,1c-1.3,0-3.1-0.2-5.4-0.4c-3.6-0.3-7.2-0.4-10.8-0.4
		C136.8,495.3,134.6,495.9,133.5,497.2z"/>
        <path class="st2" d="M169.2,627.9c1.2-7.6,3.3-18.7,6.2-33.4c2.9-14.7,6.7-30.4,11.3-47.1c4.6-16.7,9.9-31.9,15.9-45.6
		c6-13.7,12.7-23.4,20.1-29.1c4.7-3.2,9.4-5,14.1-5.3c4.7-0.3,7.6-0.5,8.8-0.5c6.9,0,13.5,1.4,19.8,4.3c7.4,3.5,12.3,9.6,14.7,18.4
		c5.7,25.4,10.1,48.4,13.2,68.9c3.1,20.5,6.2,42.9,9.2,67.3l0.3,1.8c1,7.1,1.7,12.4,2,16c0.4,3.6,0.7,7,1,10.3
		c0.2,2.8,0.5,6.5,1,11.2c0.4,4.7,1.2,11.3,2.2,19.9v1.5c0,5.5-1.9,9.7-5.8,12.7c-4.2,3.3-8.3,5.2-12.2,5.7
		c-3.9,0.5-6.9,0.8-8.8,0.8c-3.8,0-7.3-0.5-10.6-1.5c-4.8-1.5-7.5-4-8.1-7.5c-0.1-1-0.3-2.8-0.4-5.4c-0.2-2.6-0.5-5.6-0.8-9
		c-0.4-4.9-0.8-9.6-1.1-14.1c-0.4-4.5-0.6-7.7-0.8-9.5c-0.4-3.5-1.4-5.5-3.1-6c-1.7-0.5-3.7-0.7-6-0.7c-2,0-4.3,0.1-7,0.3
		c-2.2,0.2-4.6,0.4-7.3,0.5c-3,0.1-7,0.4-12,0.9c-5,0.5-9.9,1.3-14.7,2.3c-4.7,1.1-8.2,2.5-10.4,4.3c-1.3,2.7-2.1,7.6-2.5,14.6
		c-0.4,7-0.6,13.2-0.6,18.6c-0.1,2.3-0.2,3.9-0.2,4.9c-0.6,4.1-3,6.7-7.1,7.9c-4.1,1.1-7.6,1.7-10.4,1.7c-2.6,0-5.2-0.4-7.8-1
		c-5.4-1.3-8.3-4.2-8.7-8.7c0.5-16.4,2.1-34.4,4.8-54C168,638.2,168.6,632.8,169.2,627.9z M251.2,569.8c-3.1-27.8-6.2-45-9.3-51.6
		c-3.1-6.6-5.8-9.9-8.2-9.9c-1.6,0-3.2,1-4.8,3.1c-4,5.4-7.8,14.6-11.4,27.8c-3.6,13.1-6.8,27.1-9.5,42.1
		c-2.7,14.9-4.6,27.8-5.8,38.5c0,0.4-0.1,0.9-0.2,1.3c-0.2,1.6-0.3,3-0.3,4.3c0,1.6,0.2,2.9,0.4,4c0.4,1.9,2,2.8,4.9,2.8h1.2
		c16.7-1.4,28.4-3.7,35.3-6.8c6.9-3.1,10.5-7,10.8-11.7c0.3-4.6,0.4-7.8,0.4-9.4c0-7.7-1-18.1-3.1-31.3
		C251.6,572.2,251.4,571,251.2,569.8z"/>
        <path class="st2" d="M427.5,551c-0.2-2.2-0.4-4.8-0.5-7.8c0-5.9-0.5-12.2-1.3-19c-0.9-6.8-3-12.6-6.2-17.4
		c-3.2-4.8-8.4-7.3-15.5-7.4c-7.8,0.7-14.4,7.1-19.9,19.2c-5.5,12.1-9.3,25.7-11.5,40.8c-2.2,15.1-3.3,28.7-3.3,41
		c0,5.2,0.2,10.4,0.5,15.6c1,17.3,4,31.1,9.1,41.5c5.1,10.4,12,15.6,20.8,15.6c1,0,2-0.1,3.1-0.2c6.7-1.5,11.6-5.3,14.9-11.4
		c3.2-6.1,5.3-12.3,6.1-18.6c0.8-6.2,1.2-11.3,1.2-15.2c0-1.3-0.1-2.5-0.2-3.6c0.2-4.6,2.1-7.4,5.8-8.4c3.7-1,6.8-1.5,9.3-1.5
		c2.5,0,5,0.4,7.5,1c5.1,1.3,7.9,3.6,8.5,6.9c0.3,2.7,0.5,5.4,0.5,8.2c0,8-1.1,16.7-3.1,26c-2.8,12.8-8.6,23.9-17.5,33.5
		c-8.9,9.6-22.1,14.9-39.5,15.9c-18.2-0.1-33.1-5.9-44.7-17.5c-11.7-11.6-19.9-25.9-24.8-43.1s-7.3-34.4-7.3-51.6c0-3,0.1-6,0.2-9.1
		c0.9-20.6,4.8-40,11.6-58.1c6.8-18.1,16.3-32.4,28.4-42.8c12.1-10.4,26.2-15.6,42.5-15.6c1.5,0,3,0.1,4.5,0.1
		c14,1.4,25,6,33.1,13.9c8.1,7.9,13.4,16.9,16,27.2c2.6,10.2,3.9,20,3.9,29.4c0,3.7-0.2,7.5-0.5,11.4c-0.7,3.9-2.9,6.3-6.6,7.2
		c-3.7,0.9-6.8,1.3-9.3,1.3c-2.4,0-4.8-0.3-7.3-0.9C430.9,556.3,428.1,554.2,427.5,551z"/>
        <path class="st2" d="M547.1,497.2c-2.5,5.7-3.7,19.1-3.7,40.3v9.3c0.3,26.6,1.2,53.5,2.7,80.6c1.5,27.1,2.6,44.6,3.3,52.4
		c0.3,3.4,0.6,6.2,1,8.5c0.5,2.2,0.7,4.1,0.7,5.7c0,0.6-0.1,1.1-0.2,1.6c-0.3,2.1-1.6,4.4-3.9,7c-1,0.8-3.6,1.5-7.9,2
		c-4.2,0.6-9,0.8-14.4,0.8c-5.3-0.1-10.1-0.6-14.3-1.7c-4.2-1.1-6.6-2.9-7.3-5.5c-1.1-4.6-1.8-10.1-2.2-16.5
		c-1.7-31.5-2.5-62.2-2.5-91.9c0-5.9,0.1-11.8,0.2-17.7l0.2-17.2c0-17.4-0.3-35.2-0.7-53.6c0-2.9-1.1-4.5-3.3-4.8
		c-2.2-0.3-4.2-0.4-6-0.4c-2.6,0-5.7,0.2-9.4,0.6c-2.7,0.3-5.7,0.6-9,0.7c-1.1,0.1-2.1,0.2-3,0.2c-1.9,0-3.4-0.2-4.5-0.5
		c-1.6-0.5-2.7-1.9-3.4-4.3c-0.7-2.4-1.3-6.4-1.8-12c-0.1-0.7-0.2-1.3-0.2-1.9c0-3.1,0.9-5.3,2.7-6.7c2.1-1.7,6.1-2.8,12.1-3.3
		c13.6-1.3,26.2-2,37.9-2.2c11.7-0.2,19.1-0.3,22.2-0.3c15.5,0,28,0.6,37.6,1.9c6.1,1.2,9.4,3.2,10.1,6c0.6,2.8,1,5.1,1,7
		c0,2.2-0.3,4.4-0.7,6.7l-0.3,2.4c-0.3,2.4-1.3,3.9-3,4.6c-1.7,0.7-4,1-6.9,1c-1.3,0-3.1-0.2-5.4-0.4c-3.6-0.3-7.2-0.4-10.8-0.4
		C550.5,495.3,548.2,495.9,547.1,497.2z"/>
        <path class="st2" d="M643.2,689.4c0.7,4.9,0.8,8.8,0.2,11.7c-0.6,2.9-2.9,5.1-6.9,6.4c-4,1.3-10.7,2-20.2,2.1
		c-6.1,0.2-10.2-0.4-12.2-1.7c-2-1.3-3.3-4.8-3.8-10.3c-1.3-9.6-2.1-19.6-2.5-29.9c-0.4-10.4-0.7-20.4-0.8-30.1
		c-0.6-32.4-0.4-64.8,0.8-97.1c0.1-3.7,0.8-6.6,2.2-8.8c1.4-2.2,3.8-3.4,7.3-3.7c3-0.1,6.2-0.1,9.7-0.1c1,0,1.9,0,2.8,0
		c0.6,0,1.3,0,2.1,0c2.1-0.2,4.4-0.2,7-0.2c2.5,0.1,4.8,0.6,6.9,1.4c2,0.8,3.3,2.3,3.8,4.3c0.3,1.7,0.4,3.9,0.4,6.7
		c-0.1,2.7-0.2,5.4-0.4,7.9c0,1.3-0.1,2.4-0.2,3.4c-1.8,45.5-0.6,90.9,3.6,136.3C643.1,688.2,643.1,688.8,643.2,689.4z"/>
        <path class="st2" d="M768.2,551c-0.2-2.2-0.4-4.8-0.5-7.8c0-5.9-0.5-12.2-1.3-19c-0.9-6.8-3-12.6-6.2-17.4
		c-3.2-4.8-8.4-7.3-15.5-7.4c-7.8,0.7-14.4,7.1-19.9,19.2c-5.5,12.1-9.3,25.7-11.5,40.8c-2.2,15.1-3.3,28.7-3.3,41
		c0,5.2,0.2,10.4,0.5,15.6c1,17.3,4,31.1,9.1,41.5c5.1,10.4,12,15.6,20.8,15.6c1,0,2-0.1,3.1-0.2c6.7-1.5,11.6-5.3,14.9-11.4
		c3.2-6.1,5.3-12.3,6.1-18.6c0.8-6.2,1.2-11.3,1.2-15.2c0-1.3-0.1-2.5-0.2-3.6c0.2-4.6,2.1-7.4,5.8-8.4c3.7-1,6.8-1.5,9.3-1.5
		s5,0.4,7.5,1c5.1,1.3,7.9,3.6,8.5,6.9c0.3,2.7,0.5,5.4,0.5,8.2c0,8-1.1,16.7-3.1,26c-2.8,12.8-8.6,23.9-17.5,33.5
		c-8.9,9.6-22.1,14.9-39.5,15.9c-18.2-0.1-33.1-5.9-44.7-17.5c-11.7-11.6-19.9-25.9-24.8-43.1s-7.3-34.4-7.3-51.6c0-3,0.1-6,0.2-9.1
		c0.9-20.6,4.8-40,11.6-58.1c6.8-18.1,16.3-32.4,28.4-42.8c12.1-10.4,26.2-15.6,42.5-15.6c1.5,0,3,0.1,4.5,0.1
		c14,1.4,25,6,33.1,13.9c8.1,7.9,13.4,16.9,16,27.2c2.6,10.2,3.9,20,3.9,29.4c0,3.7-0.2,7.5-0.5,11.4c-0.7,3.9-2.9,6.3-6.6,7.2
		c-3.7,0.9-6.8,1.3-9.3,1.3c-2.4,0-4.8-0.3-7.3-0.9C771.6,556.3,768.8,554.2,768.2,551z"/>
        <path class="st2" d="M816.4,627.9c1.2-7.6,3.3-18.7,6.2-33.4c2.9-14.7,6.7-30.4,11.3-47.1c4.6-16.7,9.9-31.9,15.9-45.6
		c6-13.7,12.7-23.4,20.1-29.1c4.7-3.2,9.4-5,14.1-5.3c4.7-0.3,7.6-0.5,8.8-0.5c6.9,0,13.5,1.4,19.8,4.3c7.4,3.5,12.3,9.6,14.7,18.4
		c5.7,25.4,10.1,48.4,13.2,68.9c3.1,20.5,6.2,42.9,9.2,67.3l0.3,1.8c1,7.1,1.7,12.4,2,16s0.7,7,1,10.3c0.2,2.8,0.5,6.5,1,11.2
		c0.4,4.7,1.2,11.3,2.2,19.9v1.5c0,5.5-1.9,9.7-5.8,12.7c-4.2,3.3-8.3,5.2-12.2,5.7c-3.9,0.5-6.9,0.8-8.8,0.8
		c-3.8,0-7.3-0.5-10.6-1.5c-4.8-1.5-7.5-4-8.1-7.5c-0.1-1-0.3-2.8-0.4-5.4c-0.2-2.6-0.5-5.6-0.8-9c-0.4-4.9-0.8-9.6-1.1-14.1
		c-0.4-4.5-0.6-7.7-0.8-9.5c-0.4-3.5-1.4-5.5-3.1-6c-1.7-0.5-3.7-0.7-6-0.7c-2,0-4.3,0.1-7,0.3c-2.2,0.2-4.6,0.4-7.3,0.5
		c-3,0.1-7,0.4-12,0.9c-5,0.5-9.9,1.3-14.7,2.3c-4.7,1.1-8.2,2.5-10.4,4.3c-1.3,2.7-2.1,7.6-2.5,14.6c-0.4,7-0.6,13.2-0.6,18.6
		c-0.1,2.3-0.2,3.9-0.2,4.9c-0.6,4.1-3,6.7-7.1,7.9c-4.1,1.1-7.6,1.7-10.4,1.7c-2.6,0-5.2-0.4-7.8-1c-5.4-1.3-8.3-4.2-8.7-8.7
		c0.5-16.4,2.1-34.4,4.8-54C815.2,638.2,815.8,632.8,816.4,627.9z M898.4,569.8c-3.1-27.8-6.2-45-9.3-51.6c-3.1-6.6-5.8-9.9-8.2-9.9
		c-1.6,0-3.2,1-4.8,3.1c-4,5.4-7.8,14.6-11.4,27.8c-3.6,13.1-6.8,27.1-9.5,42.1c-2.7,14.9-4.6,27.8-5.8,38.5c0,0.4-0.1,0.9-0.2,1.3
		c-0.2,1.6-0.3,3-0.3,4.3c0,1.6,0.2,2.9,0.4,4c0.4,1.9,2,2.8,4.9,2.8h1.2c16.7-1.4,28.4-3.7,35.3-6.8c6.9-3.1,10.5-7,10.8-11.7
		c0.3-4.6,0.4-7.8,0.4-9.4c0-7.7-1-18.1-3.1-31.3C898.8,572.2,898.6,571,898.4,569.8z"/>
        <g>
		<path class="st2" d="M513.5,395.9c-0.6,11.1,6.3,40.8-12.3,40.1c-25-0.6-14.2-68-14.2-82.8c0-15.8-0.3-25.6,0.9-41.1
			c0-1.3,0.6-8.9-0.3-9.8c-2.8-3.8-7.9,10.7-8.9,12.6c-2.5,6.6-4.7,16.1-6.3,22.8c-3.2,13.3-4.1,24.3-6,37.6
			c-2.2,14.2-0.3,43.3-20.2,43.9c-19.9,0.3-18.3-17.1-19.9-30.7c-1.6-16.4-3.2-32.9-5.4-49.3c0-0.9-0.3-1.9-1.3-2.2
			c-1.3-0.3-3.2,4.7-3.5,6c-1.6,7-2.8,10.1-4.1,17.1c-1.9,8.5-2.8,17.1-3.5,25.6c-0.6,8.2-0.9,14.2-0.9,22.4
			c0,5.4,3.2,18.3-0.3,20.5c-6,3.5-16.8,4.7-21.2,0.3c-5.4-5.7-7.3-20.5-8.2-27.8c-1.6-15.5-13-96.1-13-104.3
			c0.3-11.1,1.9-20.5,13.6-20.5c13.6-0.3,14.5,9.5,14.9,19.6c0.9,19.6,3.2,43.9,4.1,66.4c6.3-21.5,6.3-30,11.7-41.1
			c5.1-10.1,11.1-16.8,23.7-14.9c12.6,1.9,14.5,10.7,15.8,20.5c0.9,9.5,2.5,22.8,3.2,33.2c-0.3-2.2,8.5-31.9,11.1-42.4
			c3.2-13.6,7.9-32.6,17.7-43c7.6-7.9,22.4-11.7,31-3.5c6,6,5.4,15.5,5.1,23.1C515.1,329.9,515.1,360.5,513.5,395.9z"/>
            <path class="st2" d="M601.4,378.9c-5.1,13.9-12,29.7-29.7,29.1c-17.1-0.3-27.5-13.3-32.6-29.4c-8.2-27.5-6.6-54.7,3.2-81.6
			c5.1-13.9,15.8-21.5,30.3-18.3c16.1,3.5,21.5,18,21.2,32.6c0,1.6,0,2.8-0.3,4.4c-1.9,18.3-10.4,36-25,47.7c-0.6,0.6-6,3.8-6,4.4
			c0,5.7,2.8,25,9.5,25.6c9.5,1.3,14.9-13.3,16.8-19c1.3-4.7,4.4-19.9,11.7-19.6C609.6,355.8,603,374.5,601.4,378.9z M560.7,353
			c-0.3-1.9,13.3-11.1,18.3-25.3c1.9-6,2.8-14.9,1.3-21.2c-0.9-3.2-2.8-5.1-6.6-5.4c-4.7-0.3-8.9,6.3-10.1,10.4
			C560.3,325.5,558.4,339,560.7,353z"/>
            <path class="st2" d="M709.2,333.7c-1.3,14.5-2.8,29.4-4.4,44.3c-0.3,5.4-0.9,10.7-1.3,16.1c-1.6,14.2-0.9,28.8,0.6,43
			c0.3,2.5,0.6,5.1-0.6,7.3c-0.9,2.5-3.5,4.1-5.7,5.1c-6.3,2.5-11.4-0.9-14.2-6.6c-1.9-4.1-2.2-8.5-2.5-12.6
			c-2.2-23.1,0.3-44.9,3.5-67.6c0.9-6,1.9-12.3,1.3-18.3c0-2.5,0-5.7-1.3-7.6c-4.1-6.3-12.3,23.4-14.2,30.3
			c-3.8,12.6-7.6,25-10.4,37.6c-2.5,11.4,5.1,33.2-15.2,32.6c-22.1-0.3-18-22.1-19-36.4c-1.3-22.1-2.2-43.9-2.8-65.7
			c-0.3-11.4-0.6-22.8-0.6-34.1c-0.3-8.5-1.6-21.2,8.5-25.3c4.7-1.6,12.3-4.1,17.1-0.9c7,4.4,5.1,17.7,4.7,24.7
			c-1.6,26.9-2.2,43.9-0.6,71.4c6-15.5,11.7-31,18.3-46.2c4.7-10.4,10.7-21.2,25-18C709.5,310,710.2,321.7,709.2,333.7z"/>
            <path class="st2" d="M793.6,253.7c-6.6,1.9-18-1.6-22.1,5.7c-3.2,5.4-5.4,83.8-5.7,102.1c-0.3,13.3,0,26.6,0.9,39.8
			c0.6,8.9,4.4,25-3.5,31.6c-3.8,2.8-12.3,2.5-16.1-0.3c-12.6-8.9-9.8-32.2-10.1-45.8c-0.9-43,1.9-86,3.5-129c0-0.3-27.8-0.9-30-1.3
			c-3.2-0.6-6.6-2.8-7-6.3c-1.6-9.8,12.3-10.7,19-11.1c1.6,0,18.3-0.9,18.3-1.9c0.3-13.9,0-34.8,19.9-33.2c8.2,0.6,12.3,5.1,13.3,13
			c0.6,3.5-3.2,19.6,1.3,21.2c0.6,0.3,1.3,0.3,1.9,0.3c5.7-0.3,12.3-1.9,18,0C805.3,241.7,802.2,251.2,793.6,253.7z"/>
            <path class="st2" d="M866.6,378.9c-5.1,13.9-12,29.7-29.7,29.1c-17.1-0.3-27.5-13.3-32.6-29.4c-8.2-27.5-6.6-54.7,3.2-81.6
			c5.1-13.9,15.8-21.5,30.3-18.3c16.1,3.5,21.5,18,21.2,32.6c0,1.6,0,2.8-0.3,4.4c-1.9,18.3-10.4,36-25,47.7c-0.6,0.6-6,3.8-6,4.4
			c0,5.7,2.8,25,9.5,25.6c9.5,1.3,14.9-13.3,16.8-19c1.3-4.7,4.4-19.9,11.7-19.6C874.9,355.8,868.2,374.5,866.6,378.9z M825.9,353
			c-0.3-1.9,13.3-11.1,18.3-25.3c1.9-6,2.8-14.9,1.3-21.2c-0.9-3.2-2.8-5.1-6.6-5.4c-4.7-0.3-8.9,6.3-10.1,10.4
			C825.6,325.5,823.7,339,825.9,353z"/>
	</g>
        <path class="st1" d="M600.5,470.5c1-3,3.1-5.3,6.5-6.7c3.4-1.4,8.8-2,16.2-1.8c8.8,0.1,14.6,1.8,17.6,5.1c2.9,3.3,3.9,9.3,2.9,18.1
		c0,0.9-0.1,1.9-0.2,3c0,3.7-0.4,7.3-1.2,10.9c-0.8,3.5-2.6,6.2-5.5,7.9c-3,1.2-7.3,1.8-12.8,1.9c-5.5,0.1-9.9,0-13.1-0.2
		c-2.6-0.1-4.8-0.5-6.6-1.3c-1.8-0.8-3.3-2.5-4.5-5.2l-0.2-0.3c-0.3-0.7-0.5-1.4-0.7-2s-0.2-1.4-0.2-2.2c0-0.7,0-1.4,0-2.1
		c0.1-4.4,0.2-8.7,0.3-13C599.1,477.5,599.6,473.6,600.5,470.5z"/>
        <g>
		<path class="st1" d="M286.9,443.3c2.1,1.8,2.6,4.3,1.7,5.5c-3,4.2-6.3,8.2-9.7,12c-1.1,1.3-3.7,0.7-5.7-1.1
			c-2-1.7-2.7-4.3-1.7-5.5c3.4-3.8,6.7-7.8,9.7-12C282.2,440.8,284.9,441.6,286.9,443.3z"/>
	</g>
        <g>
		<path class="st1" d="M214.3,435.9c2.3-1.2,4.6-0.5,5.4,0.9c2.6,4.6,5.1,9.3,7.3,14.2c0.7,1.6-0.6,3.6-2.9,4.7
			c-2.2,1.1-4.7,0.5-5.4-0.9c-2.2-4.8-4.6-9.6-7.4-14.1C210.6,439.1,212.2,436.9,214.3,435.9z"/>
	</g>
        <g>
		<path class="st1" d="M348,334.1c-1.4-1.7-3.5-2.6-5.8-2.2c-18.7,2.8-36.7,11.3-51.9,24.6c-15,13-27,30.6-34.7,50.9
			c-4.1,10.8-7,22.5-8.8,34.8c-0.5,3.9,2.2,6.4,5.2,6.8c0.3,0,0.6,0.1,1,0.1c2.9,0,5.9-1.8,6.5-5.5c5.7-40.5,27.2-74.2,57.6-90.1
			c8.7-4.6,17.9-7.6,27.3-9c2.2-0.3,4-1.7,4.7-3.7C350,338.6,349.5,336,348,334.1z"/>
            <path class="st1" d="M290.8,410.7c-0.3-2.2-1.8-4.1-3.7-4.9c-1.7-0.7-3.7-0.4-5.3,0.8c-10.5,8.2-19.7,17.6-27.4,28.3
			c-2.2-11.4-4.9-23.1-8.3-35.1c-0.6-2-1.9-3.3-3.8-3.8c-2-0.5-4.4,0.2-5.9,1.8c-1.5,1.5-2,3.6-1.4,5.7c4.7,16.7,8.2,32.8,10.3,47.9
			c0.4,2.6,2.3,4.7,4.8,5.1c0.4,0.1,0.7,0.1,1.1,0.1c2.1,0,4-1.1,5.1-3.1c8.1-14.4,19.2-27.3,32.2-37.3
			C290.3,414.8,291.1,412.9,290.8,410.7z"/>
	</g>
        <g>
		<path class="st2" d="M226.5,785.2h-2.6l0.8-1.6l16.2-37.1l0.3-0.7h1.5l0.3,0.7l16.2,37.1l0.8,1.6h-2.6l-0.3-0.7l-15.2-34.7
			l-15.2,34.7L226.5,785.2z"/>
            <path class="st2" d="M266.2,761.9c2.6-3,5.7-4.5,9.4-4.5c0.7,0,1.3,0.1,2,0.2c3.5,0.6,6.3,2.5,8.4,5.7v-4.8v-1.1h2.4l-0.1,1.2
			l-0.1,25.5c0,2.4-0.9,4.8-2.8,7.1c-2.6,3.2-5.9,4.8-9.9,4.9h-1.2v-2.3h1.2c2.8,0,5.3-1.1,7.4-3.1c2-2,3-4.2,3-6.5v-4.8
			c-0.3,0.5-0.7,0.9-1,1.4c-2.6,3-5.7,4.5-9.4,4.5c-3.2,0-6-1.1-8.4-3.4c-2.9-2.8-4.3-6.3-4.3-10.5
			C262.8,767.7,263.9,764.6,266.2,761.9z M267.6,778.8c2.1,2.7,4.8,4.1,8,4.1c2.5,0,4.7-0.9,6.6-2.6c2.6-2.3,3.8-5.3,3.8-9
			c0-2.8-0.8-5.3-2.4-7.5c-2.1-2.7-4.8-4.1-8-4.1c-2.5,0-4.7,0.9-6.6,2.6c-2.6,2.3-3.8,5.3-3.8,9
			C265.1,774.1,265.9,776.6,267.6,778.8z"/>
            <path class="st2" d="M319.1,779.7c-2.8,3.7-6.5,5.6-11,5.6c-3.1,0-5.9-1.1-8.3-3.4c-2.9-2.8-4.4-6.3-4.4-10.6
			c0-3.6,1.1-6.7,3.3-9.3c2.5-3.1,5.7-4.6,9.5-4.6c3.2,0,6,1.1,8.4,3.4c2.9,2.8,4.3,6.3,4.3,10.5v1.2h-1.2h-22
			c0.2,2.3,1,4.4,2.3,6.3c2.1,2.8,4.8,4.2,8.1,4.2c3.7,0,6.8-1.5,9.2-4.6L319.1,779.7z M318.5,770.2c0-2.3-0.8-4.5-2.4-6.5
			c-2.2-2.6-4.8-3.9-8-3.9c-2.2,0-4.2,0.7-6,2c-2.6,2-4.1,4.9-4.4,8.4H318.5z"/>
            <path class="st2" d="M349.8,785.3h-2.3l-0.1-1.2l-0.1-15c0-2.1-0.6-4-1.8-5.7c-1.7-2.5-4-3.7-6.9-3.7c-1.9,0-3.7,0.6-5.3,1.9
			c-2.3,1.9-3.4,4.4-3.4,7.5v1.2v13.7v1.2h-2.3v-1.2v-13.7v-1.2v-10.6v-1.2h2.3v1.2v3.4c0.1-0.1,0.2-0.3,0.3-0.4
			c2.2-2.7,5-4.1,8.3-4.1c2.6,0,4.9,0.9,7,2.7c2.7,2.4,4,5.4,4,9.1v14.9L349.8,785.3z"/>
            <path class="st2" d="M379.7,779.8c-2.5,3.6-5.9,5.4-10.4,5.5c-3.1,0-5.9-1.1-8.2-3.4c-2.9-2.8-4.3-6.3-4.3-10.6
			c0-3.6,1.1-6.7,3.2-9.3c2.5-3.1,5.6-4.6,9.3-4.6c4.6,0,8.1,1.7,10.4,5.1l-2,1.3c-1.8-2.7-4.6-4-8.5-4.1c-2.4,0-4.6,0.9-6.5,2.6
			c-2.5,2.3-3.8,5.3-3.8,9c0,2.8,0.8,5.3,2.3,7.4c2,2.8,4.7,4.2,7.9,4.2c3.5,0,6.4-1.5,8.5-4.4L379.7,779.8z"/>
            <path class="st2"
                  d="M387.2,752.7v-2.3h1.2h0.1h1.2v2.3h-1.2h-0.1H387.2z M387.2,757.4h2.3v1.2v25.5v1.2h-2.3v-1.2v-25.5V757.4z"
            />
            <path class="st2" d="M399.5,761.9c2.6-3,5.7-4.5,9.4-4.5c0.7,0,1.3,0.1,2,0.2c3.5,0.6,6.3,2.5,8.4,5.7v-4.8v-1.2h2.3v1.2v12.8
			v12.8v1.2h-2.3v-1.2v-4.8c-0.3,0.5-0.7,0.9-1,1.4c-2.6,3-5.7,4.5-9.4,4.5c-3.2,0-6-1.1-8.4-3.4c-2.9-2.8-4.3-6.3-4.3-10.5
			C396.2,767.7,397.3,764.6,399.5,761.9z M400.9,778.8c2.1,2.7,4.8,4.1,8,4.1c2.5,0,4.7-0.9,6.6-2.6c2.6-2.3,3.8-5.3,3.8-9
			c0-2.8-0.8-5.3-2.4-7.5c-2.1-2.7-4.8-4.1-8-4.1c-2.5,0-4.7,0.9-6.6,2.6c-2.6,2.3-3.8,5.3-3.8,9
			C398.5,774.1,399.3,776.6,400.9,778.8z"/>
            <path class="st2" d="M456.9,761.9c2.6-3,5.7-4.5,9.4-4.5c0.7,0,1.3,0.1,2,0.2c3.5,0.6,6.3,2.5,8.4,5.7v-17.5v-1.2h2.3v1.2v25.5
			v12.8v1.2h-2.3v-1.2v-4.8c-0.3,0.5-0.7,0.9-1,1.4c-2.6,3-5.7,4.5-9.4,4.5c-3.2,0-6-1.1-8.4-3.4c-2.9-2.8-4.3-6.3-4.3-10.5
			C453.6,767.7,454.7,764.6,456.9,761.9z M458.3,778.8c2.1,2.7,4.8,4.1,8,4.1c2.5,0,4.7-0.9,6.6-2.6c2.6-2.3,3.8-5.3,3.8-9
			c0-2.8-0.8-5.3-2.4-7.5c-2.1-2.7-4.8-4.1-8-4.1c-2.5,0-4.7,0.9-6.6,2.6c-2.6,2.3-3.8,5.3-3.8,9
			C455.9,774.1,456.7,776.6,458.3,778.8z"/>
            <path class="st2" d="M509.8,779.7c-2.8,3.7-6.5,5.6-11,5.6c-3.1,0-5.9-1.1-8.3-3.4c-2.9-2.8-4.4-6.3-4.4-10.6
			c0-3.6,1.1-6.7,3.3-9.3c2.5-3.1,5.7-4.6,9.5-4.6c3.2,0,6,1.1,8.4,3.4c2.9,2.8,4.3,6.3,4.3,10.5v1.2h-1.2h-22
			c0.2,2.3,1,4.4,2.3,6.3c2.1,2.8,4.8,4.2,8.1,4.2c3.7,0,6.8-1.5,9.2-4.6L509.8,779.7z M509.2,770.2c0-2.3-0.8-4.5-2.4-6.5
			c-2.2-2.6-4.8-3.9-8-3.9c-2.2,0-4.2,0.7-6,2c-2.6,2-4.1,4.9-4.4,8.4H509.2z"/>
            <path class="st2" d="M546.8,761.9c2.6-3.1,5.7-4.6,9.5-4.5c3.1,0,5.9,1.1,8.3,3.4c2.9,2.8,4.3,6.3,4.3,10.5c0,3.6-1.1,6.7-3.4,9.5
			c-2.6,3-5.7,4.5-9.4,4.5c-0.7,0-1.3-0.1-2-0.2c-3.5-0.6-6.3-2.5-8.4-5.7v15.5v1.2h-2.3v-1.2v-23.5v-12.8v-1.2h2.3v1.2v4.8
			C546.1,762.9,546.4,762.4,546.8,761.9z M548.2,778.8c2.1,2.7,4.8,4.1,8,4.1c2.5,0,4.7-0.9,6.6-2.6c2.6-2.3,3.8-5.3,3.8-9
			c0-2.8-0.8-5.3-2.5-7.5c-2.1-2.7-4.7-4.1-7.9-4.1c-2.4,0-4.6,0.9-6.6,2.6c-2.5,2.3-3.8,5.3-3.9,9
			C545.7,774.1,546.6,776.6,548.2,778.8z"/>
            <path class="st2" d="M574.8,757.5h2.4l-0.1,1.2l-0.1,16.3c0,1.7,0.6,3.3,1.7,4.8c1.8,2.2,4.2,3.2,7.2,3.2c2,0,3.7-0.5,5.3-1.6
			c2.4-1.6,3.5-3.7,3.5-6.4v-16.3l0.1-1.1h2.4l-0.1,1.2l-0.1,16.3c0,2.4-0.8,4.5-2.4,6.4c-2.2,2.6-5.2,3.9-8.8,3.9
			c-2.7,0-5.2-0.8-7.3-2.5c-2.6-2.1-3.9-4.7-3.9-7.8v-16.3L574.8,757.5z"/>
            <path class="st2" d="M605.3,745.8v-1.2h2.3v1.2v17.5c0.3-0.5,0.7-0.9,1-1.4c2.6-3,5.7-4.5,9.4-4.5c3.2,0,6,1.1,8.4,3.4
			c2.9,2.8,4.3,6.3,4.3,10.5c0,3.6-1.1,6.7-3.4,9.5c-2.6,3-5.7,4.5-9.4,4.5c-0.7,0-1.4-0.1-2-0.2c-3.5-0.6-6.3-2.5-8.4-5.7v4.8v1.2
			h-2.3v-1.2v-12.7V745.8z M610.1,778.8c2.1,2.7,4.7,4.1,7.9,4.1c2.5,0,4.7-0.9,6.6-2.6c2.6-2.3,3.8-5.3,3.8-9
			c0-2.8-0.8-5.3-2.4-7.5c-2.1-2.7-4.8-4.1-8-4.1c-2.5,0-4.7,0.9-6.6,2.6c-2.6,2.3-3.8,5.3-3.8,9
			C607.6,774.2,608.4,776.6,610.1,778.8z"/>
            <path class="st2" d="M637.8,744.6h2.3v1.2v38.3v1.2h-2.3v-1.2v-38.3V744.6z"/>
            <path class="st2"
                  d="M649.2,752.7v-2.3h1.2h0.1h1.2v2.3h-1.2h-0.1H649.2z M649.2,757.4h2.3v1.2v25.5v1.2h-2.3v-1.2v-25.5V757.4z"
            />
            <path class="st2" d="M681.2,779.8c-2.5,3.6-5.9,5.4-10.4,5.5c-3.1,0-5.9-1.1-8.2-3.4c-2.9-2.8-4.3-6.3-4.3-10.6
			c0-3.6,1.1-6.7,3.2-9.3c2.5-3.1,5.6-4.6,9.3-4.6c4.6,0,8.1,1.7,10.4,5.1l-2,1.3c-1.8-2.7-4.6-4-8.5-4.1c-2.4,0-4.6,0.9-6.5,2.6
			c-2.5,2.3-3.8,5.3-3.8,9c0,2.8,0.8,5.3,2.3,7.4c2,2.8,4.7,4.2,7.9,4.2c3.5,0,6.4-1.5,8.5-4.4L681.2,779.8z"/>
            <path class="st2"
                  d="M688.7,752.7v-2.3h1.2h0.1h1.2v2.3h-1.2h-0.1H688.7z M688.7,757.4h2.3v1.2v25.5v1.2h-2.3v-1.2v-25.5V757.4z"
            />
            <path class="st2" d="M701,761.9c2.6-3,5.7-4.5,9.4-4.5c0.7,0,1.3,0.1,2,0.2c3.5,0.6,6.3,2.5,8.4,5.7v-17.5v-1.2h2.3v1.2v25.5v12.8
			v1.2h-2.3v-1.2v-4.8c-0.3,0.5-0.7,0.9-1,1.4c-2.6,3-5.7,4.5-9.4,4.5c-3.2,0-6-1.1-8.4-3.4c-2.9-2.8-4.3-6.3-4.3-10.5
			C697.6,767.7,698.8,764.6,701,761.9z M702.4,778.8c2.1,2.7,4.8,4.1,8,4.1c2.5,0,4.7-0.9,6.6-2.6c2.6-2.3,3.8-5.3,3.8-9
			c0-2.8-0.8-5.3-2.4-7.5c-2.1-2.7-4.8-4.1-8-4.1c-2.5,0-4.7,0.9-6.6,2.6c-2.6,2.3-3.8,5.3-3.8,9C700,774.1,700.8,776.6,702.4,778.8
			z"/>
            <path class="st2" d="M733.5,761.9c2.6-3,5.7-4.5,9.4-4.5c0.7,0,1.3,0.1,2,0.2c3.5,0.6,6.3,2.5,8.4,5.7v-4.8v-1.2h2.3v1.2v12.8
			v12.8v1.2h-2.3v-1.2v-4.8c-0.3,0.5-0.7,0.9-1,1.4c-2.6,3-5.7,4.5-9.4,4.5c-3.2,0-6-1.1-8.4-3.4c-2.9-2.8-4.3-6.3-4.3-10.5
			C730.1,767.7,731.2,764.6,733.5,761.9z M734.9,778.8c2.1,2.7,4.8,4.1,8,4.1c2.5,0,4.7-0.9,6.6-2.6c2.6-2.3,3.8-5.3,3.8-9
			c0-2.8-0.8-5.3-2.4-7.5c-2.1-2.7-4.8-4.1-8-4.1c-2.5,0-4.7,0.9-6.6,2.6c-2.6,2.3-3.8,5.3-3.8,9
			C732.4,774.1,733.2,776.6,734.9,778.8z"/>
            <path class="st2" d="M765.9,761.9c2.6-3,5.7-4.5,9.4-4.5c0.7,0,1.3,0.1,2,0.2c3.5,0.6,6.3,2.5,8.4,5.7v-17.5v-1.2h2.3v1.2v25.5
			v12.8v1.2h-2.3v-1.2v-4.8c-0.3,0.5-0.7,0.9-1,1.4c-2.6,3-5.7,4.5-9.4,4.5c-3.2,0-6-1.1-8.4-3.4c-2.9-2.8-4.3-6.3-4.3-10.5
			C762.6,767.7,763.7,764.6,765.9,761.9z M767.3,778.8c2.1,2.7,4.8,4.1,8,4.1c2.5,0,4.7-0.9,6.6-2.6c2.6-2.3,3.8-5.3,3.8-9
			c0-2.8-0.8-5.3-2.4-7.5c-2.1-2.7-4.8-4.1-8-4.1c-2.5,0-4.7,0.9-6.6,2.6c-2.6,2.3-3.8,5.3-3.8,9
			C764.9,774.1,765.7,776.6,767.3,778.8z"/>
	</g>
</g>
</svg>
